<svg id="visual" viewBox="0 0 320 700" width="320" height="700" xmlns="http://www.w3.org/2000/svg" xmlns:xlink="http://www.w3.org/1999/xlink" version="1.1"><rect x="0" y="0" width="320" height="700" fill="#ffffff"></rect><defs><linearGradient id="grad1_0" x1="0%" y1="0%" x2="100%" y2="100%"><stop offset="30%" stop-color="#ffffff" stop-opacity="1"></stop><stop offset="70%" stop-color="#ffffff" stop-opacity="1"></stop></linearGradient></defs><defs><linearGradient id="grad2_0" x1="0%" y1="0%" x2="100%" y2="100%"><stop offset="30%" stop-color="#ffffff" stop-opacity="1"></stop><stop offset="70%" stop-color="#ffffff" stop-opacity="1"></stop></linearGradient></defs><g transform="translate(320, 0)"><path d="M0 192C-25.5 189.9 -51.1 187.8 -73.5 177.4C-95.9 166.9 -115.1 148.1 -128 128C-140.9 107.9 -147.4 86.6 -157.1 65.1C-166.7 43.5 -179.3 21.8 -192 0L0 0Z" fill="#FBAE3C"></path></g><g transform="translate(0, 700)"><path d="M0 -192C22.5 -184.7 44.9 -177.4 70.4 -170C95.9 -162.6 124.4 -155 135.8 -135.8C147.1 -116.6 141.3 -85.8 147.8 -61.2C154.3 -36.7 173.2 -18.3 192 0L0 0Z" fill="#FBAE3C"></path></g></svg>