<svg id="visual" viewBox="0 0 768 700" width="768" height="700" xmlns="http://www.w3.org/2000/svg" xmlns:xlink="http://www.w3.org/1999/xlink" version="1.1"><rect x="0" y="0" width="768" height="700" fill="#ffffff"></rect><defs><linearGradient id="grad1_0" x1="8.9%" y1="0%" x2="100%" y2="100%"><stop offset="28.057142857142857%" stop-color="#ffffff" stop-opacity="1"></stop><stop offset="71.94285714285715%" stop-color="#ffffff" stop-opacity="1"></stop></linearGradient></defs><defs><linearGradient id="grad2_0" x1="0%" y1="0%" x2="91.1%" y2="100%"><stop offset="28.057142857142857%" stop-color="#ffffff" stop-opacity="1"></stop><stop offset="71.94285714285715%" stop-color="#ffffff" stop-opacity="1"></stop></linearGradient></defs><g transform="translate(768, 0)"><path d="M0 311.7C-26.5 275.8 -53 239.8 -95.7 231C-138.4 222.1 -197.3 240.3 -220.4 220.4C-243.6 200.6 -231 142.6 -240.2 99.5C-249.5 56.4 -280.6 28.2 -311.7 0L0 0Z" fill="#FBAE3C"></path></g><g transform="translate(0, 700)"><path d="M0 -311.7C45.9 -312.6 91.9 -313.4 119.3 -288C146.7 -262.6 155.7 -211 179.6 -179.6C203.5 -148.2 242.5 -137.2 267 -110.6C291.5 -84 301.6 -42 311.7 0L0 0Z" fill="#FBAE3C"></path></g></svg>